<svg xmlns="http://www.w3.org/2000/svg" class="rating-0" viewBox="0 0 512 512"><circle cx="256" cy="256" r="256" fill="#ffd93b"/><path fill="#f4c534" d="M512 256c0 141.44-114.64 256-256 256-80.48 0-152.32-37.12-199.28-95.28 43.92 35.52 99.84 56.72 160.72 56.72 141.36 0 256-114.56 256-256 0-60.88-21.2-116.8-56.72-160.72C474.8 103.68 512 175.52 512 256z"/><ellipse cx="166.318" cy="199.829" fill="#fff" rx="56.146" ry="56.13" transform="scale(-1) rotate(31.21 715.433 -595.455)"/><ellipse cx="180.871" cy="175.822" fill="#3e4347" rx="28.048" ry="28.08" transform="rotate(-148.804 180.87 175.82)"/><ellipse cx="194.433" cy="165.993" fill="#5a5f63" rx="8.016" ry="5.296" transform="rotate(-113.778 194.434 165.995)"/><ellipse cx="345.695" cy="199.819" fill="#fff" rx="56.146" ry="56.13" transform="scale(-1) rotate(31.21 715.397 -1237.664)"/><ellipse cx="360.252" cy="175.84" fill="#3e4347" rx="28.048" ry="28.08" transform="rotate(-148.804 360.25 175.837)"/><ellipse cx="373.794" cy="165.987" fill="#5a5f63" rx="8.016" ry="5.296" transform="scale(-1) rotate(66.227 254.508 -573.138)"/><path fill="#3e4347" d="M370.56 344.4c0 7.696-6.224 13.92-13.92 13.92H155.36c-7.616 0-13.92-6.224-13.92-13.92s6.304-13.92 13.92-13.92h201.296c7.696.016 13.904 6.224 13.904 13.92z"/></svg>