<svg xmlns="http://www.w3.org/2000/svg" class="rating-2" viewBox="0 0 512 512"><circle cx="256" cy="256" r="256" fill="#ffd93b"/><path fill="#f4c534" d="M512 256A256 256 0 0 1 56.7 416.7a256 256 0 0 0 360-360c58.1 47 95.3 118.8 95.3 199.3z"/><path fill="#3e4347" d="M336.6 403.2c-6.5 8-16 10-25.5 5.2a117.6 117.6 0 0 0-110.2 0c-9.4 4.9-19 3.3-25.6-4.6-6.5-7.7-4.7-21.1 8.4-28 45.1-24 99.5-24 144.6 0 13 7 14.8 19.7 8.3 27.4z"/><path fill="#fff" d="M276.6 244.3a79.3 79.3 0 1 1 158.8 0 79.5 79.5 0 1 1-158.8 0z"/><circle cx="340" cy="260.4" r="36.2" fill="#3e4347"/><g fill="#fff"><ellipse cx="326.4" cy="246.6" rx="6.5" ry="10" transform="rotate(-135 326.4 246.6)"/><path d="M231.9 244.3a79.3 79.3 0 1 0-158.8 0 79.5 79.5 0 1 0 158.8 0z"/></g><circle cx="168.5" cy="260.4" r="36.2" fill="#3e4347"/><ellipse cx="182.1" cy="246.7" fill="#fff" rx="10" ry="6.5" transform="rotate(-135 182.1 246.7)"/></svg>