<svg xmlns="http://www.w3.org/2000/svg" class="rating-3" viewBox="0 0 512 512"><circle cx="256" cy="256" r="256" fill="#ffd93b"/><path fill="#3e4347" d="M407.7 352.8a163.9 163.9 0 0 1-303.5 0c-2.3-5.5 1.5-12 7.5-13.2a780.8 780.8 0 0 1 288.4 0c6 1.2 9.9 7.7 7.6 13.2z"/><path fill="#f4c534" d="M512 256A256 256 0 0 1 56.7 416.7a256 256 0 0 0 360-360c58.1 47 95.3 118.8 95.3 199.3z"/><g fill="#fff"><path d="M115.3 339c18.2 29.6 75.1 32.8 143.1 32.8 67.1 0 124.2-3.2 143.2-31.6l-1.5-.6a780.6 780.6 0 0 0-284.8-.6z"/><ellipse cx="356.4" cy="205.3" rx="81.1" ry="81"/></g><ellipse cx="356.4" cy="205.3" fill="#3e4347" rx="44.2" ry="44.2"/><g fill="#fff"><ellipse cx="375.3" cy="188.1" rx="12" ry="8.1" transform="scale(-1) rotate(45 454 -906)"/><ellipse cx="155.6" cy="205.3" rx="81.1" ry="81"/></g><ellipse cx="155.6" cy="205.3" fill="#3e4347" rx="44.2" ry="44.2"/><ellipse cx="174.5" cy="188" fill="#fff" rx="12" ry="8.1" transform="scale(-1) rotate(45 454 -421.3)"/></svg>