<svg xmlns="http://www.w3.org/2000/svg" class="rating-4" viewBox="0 0 512 512"><circle cx="256" cy="256" r="256" fill="#ffd93b"/><path fill="#f4c534" d="M512 256A256 256 0 0 1 56.7 416.7a256 256 0 0 0 360-360c58.1 47 95.3 118.8 95.3 199.3z"/><path fill="#e24b4b" d="M232.3 201.3c0 49.2-74.3 94.2-74.3 94.2s-74.4-45-74.4-94.2a38 38 0 0 1 74.4-11.1 38 38 0 0 1 74.3 11.1z"/><path fill="#d03f3f" d="M96.1 173.3a37.7 37.7 0 0 0-12.4 28c0 49.2 74.3 94.2 74.3 94.2C80.2 229.8 95.6 175.2 96 173.3z"/><path fill="#fff" d="M215.2 200c-3.6 3-9.8 1-13.8-4.1-4.2-5.2-4.6-11.5-1.2-14.1 3.6-2.8 9.7-.7 13.9 4.4 4 5.2 4.6 11.4 1.1 13.8z"/><path fill="#e24b4b" d="M428.4 201.3c0 49.2-74.4 94.2-74.4 94.2s-74.3-45-74.3-94.2a38 38 0 0 1 74.4-11.1 38 38 0 0 1 74.3 11.1z"/><path fill="#d03f3f" d="M292.2 173.3a37.7 37.7 0 0 0-12.4 28c0 49.2 74.3 94.2 74.3 94.2-77.8-65.7-62.4-120.3-61.9-122.2z"/><path fill="#fff" d="M411.3 200c-3.6 3-9.8 1-13.8-4.1-4.2-5.2-4.6-11.5-1.2-14.1 3.6-2.8 9.7-.7 13.9 4.4 4 5.2 4.6 11.4 1.1 13.8z"/><path fill="#3e4347" d="M381.7 374.1c-30.2 35.9-75.3 64.4-125.7 64.4s-95.4-28.5-125.8-64.2a17.6 17.6 0 0 1 16.5-28.7 627.7 627.7 0 0 0 218.7-.1c16.2-2.7 27 16.1 16.3 28.6z"/><path fill="#e24b4b" d="M256 438.5c25.7 0 50-7.5 71.7-19.5-9-33.7-40.7-43.3-62.6-31.7-29.7 15.8-62.8-4.7-75.6 34.3 20.3 10.4 42.8 17 66.5 17z"/></svg>